<svg width="282" height="255" viewBox="0 0 282 255" fill="none" xmlns="http://www.w3.org/2000/svg">
<path d="M143.013 251.089C149.922 250.974 156.855 250.882 163.74 250.262C167.182 249.964 170.648 249.528 173.946 248.587C176.546 247.852 179.266 246.613 180.47 244.294C180.638 243.973 180.783 243.605 180.711 243.238C180.663 242.871 180.422 242.572 180.133 242.32C178.737 241.012 176.57 240.966 174.62 240.989C155.531 241.241 136.442 241.585 117.401 243.054C113.982 243.33 110.107 243.858 108.133 246.544C103.824 252.397 118.652 251.112 121.324 251.181C128.57 251.318 135.792 251.204 143.013 251.089Z" fill="url(#paint0_linear_78_60)"/>
<path d="M143.013 251.089C149.922 250.974 156.855 250.882 163.74 250.262C167.182 249.964 170.648 249.528 173.946 248.587C176.546 247.852 179.266 246.613 180.47 244.294C180.638 243.973 180.783 243.605 180.711 243.238C180.663 242.871 180.422 242.572 180.133 242.32C178.737 241.012 176.57 240.966 174.62 240.989C155.531 241.241 136.442 241.585 117.401 243.054C113.982 243.33 110.107 243.858 108.133 246.544C103.824 252.397 118.652 251.112 121.324 251.181C128.57 251.318 135.792 251.204 143.013 251.089Z" fill="url(#paint1_linear_78_60)"/>
<path d="M94.3875 164.731C99.539 188.88 114.199 210.458 119.326 234.63C119.663 236.214 119.976 237.844 120.891 239.175C121.83 240.507 123.563 241.494 125.176 241.08C128.113 240.323 128.089 236.421 127.679 233.551C126.476 224.989 127.511 216.289 128.57 207.704C130.207 194.321 131.844 180.938 133.481 167.532C134.709 166.315 136.923 166.591 138.271 167.693C139.619 168.772 140.269 170.424 140.799 172.031C143.182 179.17 144.169 186.631 145.18 194.045C147.178 208.897 149.152 223.772 149.393 238.739C150.813 238.831 152.233 238.923 153.653 238.992C159.479 224.163 163.86 208.874 167.976 193.563C170.071 185.804 172.093 178.022 173.417 170.103C175.15 159.704 175.607 149.145 175.968 138.631C176.041 136.496 176.065 134.224 174.789 132.456C173.657 130.895 171.708 130.092 169.83 129.403C153.726 123.504 136.418 121.323 119.23 120.038C114.391 119.67 109.505 119.395 104.739 120.221C100.983 120.864 96.891 122.287 94.0746 124.858C90.897 127.773 91.9321 132.387 91.908 136.405C91.8598 145.885 92.3895 155.411 94.3875 164.731Z" fill="#666666"/>
<path d="M84.2047 111.131C82.616 115.722 81.3643 121.162 84.3011 125.111C85.6973 126.97 87.8156 128.186 89.9581 129.219C101.994 135.004 115.763 136.358 129.172 137.598C141.256 138.723 153.389 139.848 165.521 139.228C171.298 138.929 177.389 138.126 181.89 134.66C186.175 131.377 188.414 126.121 189.016 120.91C189.617 115.699 188.799 110.442 187.956 105.254C187.042 99.5613 186.127 93.8684 184.562 88.3132C181.842 78.649 177.1 69.5129 170.745 61.5704C165.93 55.579 160.081 50.1616 152.907 46.9479C146.119 43.8948 135.816 42.4945 128.763 45.7771C121.709 49.0368 115.234 58.4255 110.516 64.2102C99.0333 78.2818 90.0543 94.2127 84.2047 111.131Z" fill="#FCEE9F"/>
<path d="M151.439 30.2364C151.366 31.453 151.294 32.6926 150.933 33.8863C150.043 36.7098 147.346 39.2578 143.687 40.6121C140.028 41.9665 135.479 42.1272 131.723 40.9335C127.992 39.7628 125.248 37.4672 123.057 35.0569C118.484 30.0068 115.812 23.9926 116.438 18.0242C116.534 17.1289 116.727 16.2107 117.521 15.4991C118.652 14.4891 120.65 14.2595 122.456 14.1218C128.402 13.6168 144.891 10.0358 149.778 12.7674C154.616 15.4761 151.679 26.4488 151.439 30.2364Z" fill="#F2D6C9"/>
<path d="M103.39 13.0889C104.257 16.6011 108.951 19.2639 113.982 19.8836C119.013 20.4805 124.189 19.3327 128.57 17.4963C133.24 15.5221 137.621 12.6527 143.062 12.4921C144.073 12.4691 145.108 12.538 145.974 12.8594C146.937 13.2266 147.635 13.8923 148.189 14.558C151.294 18.2309 151.752 22.6842 152.137 26.9309C153.798 23.2351 155.122 19.4704 156.061 15.6369C157.096 11.4591 157.385 6.56959 153.052 3.65428C149.754 1.42762 144.674 1.03738 140.101 1.42762C133.673 1.97854 127.487 3.86089 122.504 6.75325C120.53 7.90101 118.724 9.20948 116.558 10.2195C114.416 11.2066 111.816 11.8952 109.264 11.5739C106.472 11.2066 105.918 9.57671 103.968 8.6585C103.174 9.944 103.053 11.6657 103.39 13.0889Z" fill="#D1B380"/>
<path d="M161.38 72.9333C159.599 69.8114 156.975 67.2634 154.761 64.4169C152.546 61.5705 150.692 58.219 150.885 54.6839C151.078 51.1488 153.99 47.5678 157.697 47.5907C159.238 47.5907 160.682 48.1876 162.055 48.8533C166.508 50.9881 170.576 53.9034 173.922 57.4385C175.222 58.8158 176.426 60.2849 177.268 61.9607C178.496 64.4169 178.833 67.1945 179.146 69.9032C179.675 74.6779 180.109 79.5215 179.025 84.2044C177.461 90.8844 172.454 96.8527 165.834 99.5385C164.414 100.112 162.247 101.099 160.899 100.365C159.455 99.5843 159.19 97.7938 159.503 96.4394C160.321 92.7207 162.993 89.6447 163.595 85.6964C164.197 81.3578 163.595 76.8127 161.38 72.9333Z" fill="#F2D6C9"/>
<path d="M153.653 99.0563C153.365 99.2399 153.076 99.4466 152.859 99.6991C152.329 100.342 152.305 101.214 152.305 102.04C152.305 103.349 152.45 104.887 153.629 105.553C154.159 105.851 154.809 105.897 155.435 105.92C156.085 105.943 156.735 105.989 157.385 106.012C158.083 106.058 158.829 106.081 159.407 105.713C160.008 105.346 160.273 104.657 160.514 104.015C161.092 102.431 161.669 100.87 162.247 99.2859C162.343 99.0104 162.44 98.7119 162.319 98.4594C162.247 98.2987 162.079 98.184 161.934 98.0922C160.562 97.0822 159.912 96.5771 158.155 96.9444C156.687 97.2428 154.713 98.0462 153.653 99.0563Z" fill="#F2D6C9"/>
<path d="M166.628 240.07C165.762 239.313 164.486 239.198 163.33 239.129C161.597 239.014 159.864 238.876 158.131 238.762C157.385 238.716 156.59 238.647 155.988 238.234C155.748 238.073 155.555 237.843 155.387 237.614C154.833 237.614 154.303 237.591 153.75 237.591C151.752 237.545 149.754 238.257 147.804 238.831C148.213 240.46 148.598 242.067 149.007 243.697C149.08 244.019 149.176 244.363 149.441 244.569C149.706 244.776 150.091 244.799 150.452 244.799C156.229 244.937 162.031 244.73 167.784 244.202C167.832 242.71 167.784 241.034 166.628 240.07Z" fill="black"/>
<path d="M126.765 238.601C126.861 240.782 126.933 243.077 125.874 245.029C125.128 246.406 123.876 247.439 122.648 248.472C121.998 249 121.372 249.528 120.722 250.079C120.554 250.216 120.361 250.377 120.145 250.446C119.904 250.515 119.639 250.515 119.398 250.492C118.291 250.446 117.208 250.538 116.101 250.469C115.017 250.377 113.886 250.079 113.116 249.321C112.345 248.564 112.105 247.278 112.779 246.452C113.212 245.924 113.934 245.671 114.56 245.373C116.462 244.546 118.099 243.192 119.206 241.516C119.904 240.46 120.554 239.359 121.83 238.922C122.311 238.762 126.765 238.28 126.765 238.601Z" fill="black"/>
<path d="M165.641 94.4883C165.377 93.9604 165.088 93.4324 164.63 93.0651C164.029 92.606 163.21 92.583 162.464 92.56C149.056 92.1468 135.623 91.7107 122.215 91.2975C121.132 91.2516 120.145 91.9174 119.687 92.9274C117.521 97.7939 114.945 101.88 113.308 106.953C113.092 107.642 113.597 108.33 114.319 108.353C132.422 108.583 151.463 110.442 169.541 108.996C170.769 108.904 171.515 107.573 170.985 106.448C169.18 102.546 167.423 97.9775 165.641 94.4883Z" fill="#7F7F7F"/>
<path d="M165.28 93.3635C165.015 92.8355 164.751 92.3076 164.269 91.9403C163.667 91.4812 162.873 91.4582 162.151 91.4352C148.983 91.022 135.816 90.5859 122.672 90.1727C121.613 90.1268 120.626 90.7925 120.193 91.8026C118.05 96.6691 115.523 100.755 113.934 105.828C113.717 106.517 114.223 107.205 114.921 107.228C132.686 107.458 151.366 109.317 169.108 107.871C170.311 107.779 171.033 106.448 170.528 105.323C168.771 101.421 167.037 96.8527 165.28 93.3635Z" fill="#666666"/>
<path d="M163.186 94.3964C162.945 94.0291 162.704 93.6389 162.271 93.3863C161.742 93.065 161.019 93.0419 160.345 93.019C148.478 92.7206 136.61 92.3993 124.743 92.1009C123.78 92.0779 122.913 92.5369 122.504 93.2715C120.578 96.7607 118.291 99.699 116.871 103.349C116.678 103.831 117.136 104.336 117.762 104.359C133.794 104.52 150.644 105.874 166.628 104.818C167.711 104.749 168.386 103.785 167.904 102.982C166.339 100.181 164.775 96.8985 163.186 94.3964Z" fill="#F0F0F0"/>
<path d="M147.563 95.4068C147.491 95.4986 147.515 95.6133 147.539 95.7281C148.02 98.3679 148.502 101.054 149.561 103.533C152.739 103.533 155.916 103.533 159.094 103.556C160.105 103.556 161.116 103.556 162.079 103.372C161.019 100.755 159.936 98.1384 158.877 95.5216C155.242 95.6134 151.607 95.5444 147.996 95.3149C147.828 95.2919 147.659 95.292 147.563 95.4068Z" fill="#E0C74E"/>
<path d="M143.567 95.1309C137.718 95.4293 131.916 95.3375 126.066 95.1309C125.609 95.1079 125.609 95.7737 126.066 95.8197C131.892 96.2329 137.742 96.1639 143.567 95.8885C144.073 95.8655 144.097 95.1079 143.567 95.1309Z" fill="#CACACA"/>
<path d="M144.169 97.266C138.44 97.2431 132.71 97.4038 127.005 97.7022C126.572 97.7251 126.572 98.3678 127.005 98.3448C132.735 98.0923 138.44 98.0235 144.169 98.0464C144.698 98.0464 144.698 97.266 144.169 97.266Z" fill="#CACACA"/>
<path d="M144.169 99.9516C138.151 99.6991 132.109 99.6532 126.091 99.6761C125.633 99.6761 125.633 100.342 126.091 100.342C132.133 100.434 138.151 100.617 144.169 100.755C144.698 100.755 144.698 99.9745 144.169 99.9516Z" fill="#CACACA"/>
<path d="M142.556 101.995C137.212 101.949 131.844 102.04 126.476 102.086C126.018 102.086 126.018 102.752 126.476 102.752C131.82 102.798 137.188 102.89 142.556 102.844C143.134 102.844 143.134 102.018 142.556 101.995Z" fill="#CACACA"/>
<path d="M120.41 99.1711C121.397 99.2629 122.408 99.3547 123.395 99.1711C124.213 99.0333 125.007 98.712 125.681 98.2529C126.741 97.5413 127.535 96.3935 127.607 95.1539C127.655 93.9143 126.837 92.6288 125.585 92.2845C125.007 92.1238 124.406 92.1697 123.804 92.2845C121.156 92.7206 118.748 94.1669 116.076 94.3505C115.089 94.4194 113.982 94.3504 113.284 94.9932C112.899 95.3605 112.706 95.8656 112.61 96.3936C112.514 96.9445 112.49 97.5642 112.779 98.0463C113.332 98.9874 114.945 98.689 115.908 98.7579C117.4 98.8956 118.893 99.0333 120.41 99.1711Z" fill="#F2D6C9"/>
<path d="M102.837 55.097C98.4075 58.2649 94.7967 62.3738 91.3544 66.5058C88.1769 70.3393 85.0233 74.3565 83.4586 79.0164C81.8939 83.6763 82.1588 89.1626 85.3363 92.9961C88.562 96.8755 93.9541 98.2988 99.0574 99.24C101.079 99.6073 103.15 99.9516 105.22 99.8139C107.507 99.6761 111.19 100.089 113.38 99.4007C114.56 99.0334 114.56 97.9545 115.451 97.1281C116.341 96.3018 116.534 94.5112 115.908 93.5012C112.201 93.2716 108.494 92.9044 104.811 92.3994C101.754 91.9862 98.4316 91.3204 96.4577 89.0708C94.3153 86.6376 94.4596 82.8959 96.0484 80.0953C97.6372 77.2948 100.405 75.2976 103.27 73.6678C106.135 72.038 109.192 70.6837 111.84 68.7554C116.366 65.4499 135.431 52.3194 130.014 46.7643C125.681 42.4028 106.568 52.4113 102.837 55.097Z" fill="#F2D6C9"/>
<path d="M179.796 64.0267C180.013 62.7183 179.074 61.5016 178.207 60.4686C176.305 58.219 174.404 55.9465 172.478 53.6968C171.563 52.6179 170.648 51.516 169.517 50.6208C167.278 48.8303 164.39 47.981 161.597 47.2005C158.396 46.3052 154.664 45.5477 151.968 47.4071C150.115 48.6926 149.272 50.9651 149.272 53.1459C149.272 55.3266 150.018 57.4155 150.837 59.4586C152.041 62.4887 153.34 65.6335 155.05 68.4341C156.47 70.7985 158.059 70.6148 160.466 69.5818C166.749 66.8961 172.959 64.8072 179.796 64.0267Z" fill="#FCEE9F"/>
<path d="M106.159 61.3408C108.229 64.4856 110.781 67.3091 113.332 70.1097C113.525 70.3392 113.766 70.5688 114.079 70.5688C114.319 70.5688 114.536 70.431 114.704 70.2933C116.702 68.8242 118.05 66.7352 119.784 64.9906C123.226 61.5474 128.185 59.5273 130.905 55.5561C132.446 53.2835 133.12 50.483 132.783 47.7972C132.662 46.856 132.397 45.8919 131.772 45.1803C130.881 44.1473 129.413 43.7341 128.016 43.7341C126.018 43.7341 124.092 44.3998 122.239 45.0885C116.967 47.0397 111.768 49.1975 106.664 51.5389C105.412 52.1128 104.137 52.7096 102.885 53.3064C101.248 54.1099 100.839 54.0869 101.898 55.4642C103.415 57.3695 104.811 59.2748 106.159 61.3408Z" fill="#FCEE9F"/>
<path d="M264.747 255.152C269.369 255.152 274.087 255.106 278.492 253.752C278.829 252.765 278.203 251.64 277.289 251.043C276.374 250.446 275.267 250.262 274.159 250.125C270.452 249.666 266.697 249.551 262.942 249.436C248.378 249.023 233.79 248.61 219.202 248.518C217.373 248.495 209.742 248.977 211.908 252.512C213.353 254.877 220.117 254.05 222.476 254.165C231.455 254.578 240.434 254.854 249.437 255.014C254.54 255.106 259.644 255.152 264.747 255.152Z" fill="url(#paint2_linear_78_60)"/>
<path d="M264.747 255.152C269.369 255.152 274.087 255.106 278.492 253.752C278.829 252.765 278.203 251.64 277.289 251.043C276.374 250.446 275.267 250.262 274.159 250.125C270.452 249.666 266.697 249.551 262.942 249.436C248.378 249.023 233.79 248.61 219.202 248.518C217.373 248.495 209.742 248.977 211.908 252.512C213.353 254.877 220.117 254.05 222.476 254.165C231.455 254.578 240.434 254.854 249.437 255.014C254.54 255.106 259.644 255.152 264.747 255.152Z" fill="url(#paint3_linear_78_60)"/>
<path d="M276.615 114.551C276.615 114.551 277.433 102.247 254.059 103.119C253.601 103.142 253.168 103.142 252.735 103.165C252.566 103.257 252.422 103.326 252.253 103.418C251.916 104.244 251.628 105.07 251.411 105.92C251.339 106.149 251.291 106.517 251.218 106.861C251.05 108.192 251.098 107.596 251.218 106.861C251.242 106.585 251.291 106.241 251.339 105.805C251.266 106.356 251.146 106.907 251.074 107.435C250.352 112.347 250.52 117.306 250.063 122.218C249.678 126.419 248.787 130.62 247.824 134.774C248.739 134.729 249.774 134.752 250.352 134.958C251.531 135.371 252.085 237.293 250.063 243.628L259.355 243.72C259.379 243.743 277.385 139.067 276.615 114.551Z" fill="#97A8B2"/>
<path d="M251.098 57.3237C248.378 56.9564 245.489 58.3108 244.165 60.6063C243.323 62.0754 243.106 63.7971 242.889 65.4728C242.119 71.4182 241.132 77.3406 239.952 83.2401C239.158 87.2344 239.062 95.1769 233.14 95.5671C230.925 95.7278 228.639 94.121 226.448 93.7996C222.861 93.2487 219.491 93.065 216.025 91.8713C213.232 90.9072 211.379 89.484 209.284 87.5557C208.033 86.385 206.275 84.0666 204.59 83.6305C203.387 83.3091 201.87 84.6405 202.616 85.5816C201.124 84.7323 198.981 86.0867 198.909 87.7624C198.765 90.9532 205.361 92.7666 207.696 94.1439C211.306 96.3017 214.869 98.5743 218.793 100.181C224.98 102.706 231.672 104.129 238.388 104.244C239.567 104.267 240.819 104.221 241.83 103.647C243.997 102.385 245.152 99.4236 246.813 97.5872C248.33 95.8885 249.148 94.7637 249.846 92.56C251.772 86.4998 253.433 80.279 254.685 74.0581C255.864 68.8243 259.932 58.5633 251.098 57.3237Z" fill="#EADDD0"/>
<path d="M223.848 151.142C223.993 155.067 224.281 158.992 224.546 162.918C224.955 168.794 225.365 174.671 225.75 180.547C225.87 182.43 226.063 184.427 227.266 185.919C227.387 186.08 227.531 186.217 227.724 186.286C228.374 186.516 228.879 185.735 229.096 185.115C231.672 177.724 235.475 170.746 240.362 164.502C241.613 162.918 242.962 161.334 244.767 160.347C246.115 159.612 247.656 159.222 249.196 158.855C252.229 158.12 255.287 157.386 258.32 156.651C260.101 156.215 261.954 155.756 263.351 154.631C264.458 153.736 265.18 152.496 265.878 151.279C269.441 145.15 273.028 138.952 274.833 132.158C276.157 127.199 276.494 122.057 276.398 116.961C276.398 116.456 276.374 115.928 276.181 115.469C275.916 114.827 275.339 114.321 274.737 113.931C272.45 112.485 269.537 112.302 266.793 112.187C256.37 111.751 245.706 111.544 235.499 113.862C232.346 114.574 227.002 115.309 225.461 118.499C223.583 122.402 224.161 128.462 223.944 132.686C223.631 138.815 223.583 144.99 223.848 151.142Z" fill="#97A8B2"/>
<path d="M245.152 144.324C239.327 143.567 233.477 142.832 227.652 142.075C227.363 141.363 228.807 142.098 228.711 142.832C225.654 166.086 226.833 189.707 229.264 213.098C230.324 223.175 230.396 233.299 229.289 243.353C231.696 243.606 235.836 243.95 238.219 244.202C242.649 212.868 245.321 181.443 249.75 150.109C249.967 148.525 250.111 146.689 248.835 145.541C247.896 144.691 246.476 144.485 245.152 144.324Z" fill="#97A8B2"/>
<path d="M237.569 41.7142C241.06 41.5994 244.623 39.3498 248.378 38.6152C247.391 35.7228 248.57 32.6009 248.883 29.5708C249.317 25.4618 248.113 21.3758 246.861 17.4505C245.85 14.2826 244.719 11 242.336 8.56679C241.854 8.08473 241.3 7.6256 240.651 7.46491C240.073 7.32718 239.471 7.41903 238.893 7.48789C234.777 8.08473 223.343 8.54384 222.259 12.9512C220.767 18.9885 225.124 26.9998 227.579 32.3484C228.735 34.8735 229.914 37.4445 231.936 39.3957C233.766 41.2091 235.668 41.783 237.569 41.7142Z" fill="#EADDD0"/>
<path d="M277.481 128.118L277.553 128.049C277.602 128.003 277.626 127.957 277.674 127.934C277.77 127.796 277.866 127.682 277.963 127.544C279.19 125.753 280.249 123.871 281.333 122.011C283.355 100.296 280.779 78.3736 273.63 57.0252C271.391 50.3223 269.176 42.9307 260.775 38.3397C260.342 38.1101 259.884 37.8805 259.355 37.7887C258.657 37.6739 257.934 37.8576 257.26 38.0183C252.735 39.1201 248.209 40.222 243.66 41.3468C242.769 41.5764 241.854 41.783 240.939 41.9896C239.976 42.1962 239.014 42.3798 238.027 42.5175C236.342 42.747 229.722 44.2621 229.481 45.7772C228.903 49.6566 228.374 53.536 227.916 57.4384C226.761 67.0566 225.894 76.6519 225.918 86.2931C225.942 95.9114 225.028 105.507 223.367 115.033C223.246 115.768 222.645 119.647 221.922 123.618C221.971 123.687 221.995 123.756 222.043 123.825C222.62 124.881 223.246 125.891 223.944 126.878C224.017 126.97 224.137 127.131 224.257 127.314C224.33 127.383 224.378 127.452 224.426 127.498C225.196 128.347 226.063 129.151 226.953 129.908C227.026 129.977 227.146 130.069 227.29 130.207C226.063 129.105 227.363 130.229 227.724 130.459C228.663 131.056 229.625 131.607 230.612 132.089C230.853 132.204 231.864 132.617 231.96 132.663C232.057 132.709 232.177 132.732 232.273 132.777C246.476 132.204 260.655 131.262 274.737 129.908C275.604 129.242 276.542 128.577 277.481 128.118Z" fill="#E8E8E8"/>
<path d="M229.914 242.48C229.77 242.48 229.626 242.48 229.481 242.503C229.289 242.549 229.168 242.664 229.048 242.756C228.542 243.238 228.157 243.766 227.941 244.34C227.748 244.868 227.7 245.442 227.291 245.901C226.833 246.429 225.991 246.75 225.148 247.003C223.006 247.668 220.695 248.128 218.36 248.334C217.83 248.38 217.301 248.426 216.819 248.564C215.471 249 215.134 250.125 214.966 251.112C214.917 251.387 214.893 251.732 215.254 251.892C215.447 251.984 215.688 251.984 215.928 251.984C222.669 251.961 225.533 251.961 232.249 251.961C233.886 251.961 235.595 251.915 237.184 251.64C237.401 251.594 237.617 251.571 237.786 251.456C237.954 251.341 238.027 251.181 238.099 251.02C238.99 248.816 239.086 246.406 238.893 244.133C238.821 243.422 238.701 242.848 237.521 242.687C235.836 242.458 237.69 242.641 235.981 242.595C233.983 242.572 231.937 242.526 229.914 242.48Z" fill="#97A8B2"/>
<path d="M259.018 19.0343C259.042 17.0602 257.838 15.2696 256.827 13.548C255.142 10.6786 253.794 7.57961 251.724 4.93976C249.654 2.29991 246.597 0.096219 243.13 0.00439799C241.686 -0.0415125 240.265 0.279883 238.869 0.601257C232.899 1.97857 226.881 3.3788 221.441 6.08752C220.767 6.43185 220.069 6.79917 219.636 7.41897C219.25 7.94694 219.13 8.61261 219.01 9.25536C218.841 10.1506 218.673 11.0688 218.504 11.9641C218.408 12.5379 218.287 13.1119 218.408 13.6628C218.769 15.3844 220.887 16.1419 222.741 16.2567C224.57 16.3485 226.376 16.119 228.181 15.8665C229.914 15.6369 234.007 14.2596 235.403 15.7517C236.101 16.4863 235.884 17.7259 236.366 18.5982C236.944 19.6771 238.027 20.3198 238.749 21.2839C239.495 22.1791 240.025 23.4188 239.471 24.4288C240.482 23.8549 241.734 23.6712 242.889 23.9467C243.299 24.0385 243.708 24.1993 243.973 24.4977C244.478 25.0945 244.261 26.0127 243.708 26.5636C243.154 27.1146 242.36 27.367 241.589 27.5966C244.863 30.6037 246.067 35.4932 244.55 39.6022C247.054 39.3497 249.148 37.6969 250.881 35.9523C252.446 34.3684 253.89 32.6467 254.877 30.6955C255.335 29.7773 255.696 28.8362 256.057 27.895C256.755 26.0127 257.477 24.1074 258.175 22.2251C258.609 21.1691 258.994 20.1132 259.018 19.0343Z" fill="#333333"/>
<path d="M250.833 242.687C250.689 242.687 250.544 242.687 250.4 242.71C250.207 242.756 250.087 242.871 249.967 242.963C249.461 243.445 249.076 243.973 248.859 244.547C248.667 245.075 248.619 245.648 248.209 246.108C247.752 246.636 246.909 246.957 246.067 247.209C243.924 247.875 241.613 248.334 239.278 248.541C238.749 248.587 238.219 248.633 237.738 248.77C236.39 249.207 236.053 250.331 235.884 251.318C235.836 251.594 235.812 251.938 236.173 252.099C236.366 252.191 236.607 252.191 236.847 252.191C243.588 252.168 246.452 252.168 253.168 252.168C254.805 252.168 256.514 252.122 258.103 251.846C258.32 251.8 258.536 251.777 258.705 251.663C258.873 251.548 258.946 251.387 259.018 251.227C259.908 249.023 260.005 246.613 259.812 244.34C259.74 243.628 259.62 243.055 258.44 242.894C256.755 242.664 258.609 242.848 256.899 242.802C254.877 242.779 252.855 242.733 250.833 242.687Z" fill="#97A8B2"/>
<path d="M203.964 89.6217C203.266 90.9531 202.472 92.2616 201.605 93.5012C201.485 93.6848 201.341 93.8685 201.124 93.9144C200.907 93.9832 200.666 93.8685 200.474 93.7766C198.139 92.6748 195.828 91.573 193.493 90.4941C194.047 85.2603 193.734 78.9246 195.323 73.9433C195.539 73.2317 206.998 75.137 207.768 77.1341C208.514 79.1082 206.396 83.86 205.698 85.7653C205.216 87.0737 204.638 88.3592 203.964 89.6217Z" fill="#C7B299"/>
<path d="M194.576 74.4942C194.913 74.563 195.25 74.5859 195.587 74.6089C196.309 74.6778 197.008 74.8155 197.706 74.9532C201.148 75.7107 204.494 76.8126 207.792 78.0063C208.009 78.0752 208.225 78.167 208.466 78.144C208.827 78.0981 209.092 77.7767 209.188 77.4553C209.284 77.111 209.236 76.7667 209.188 76.4224C209.188 76.3535 209.164 76.2846 209.116 76.2387C209.068 76.1928 209.02 76.1699 208.947 76.1469C208.779 76.0781 208.61 76.0092 208.442 75.9633C207.671 75.6878 206.877 75.4582 206.083 75.2516C202.64 74.3334 199.174 73.4841 195.708 72.7036C195.539 72.6577 195.323 72.6347 195.178 72.7266C194.913 72.9102 194.769 73.3693 194.697 73.6448C194.576 73.8743 194.191 74.4253 194.576 74.4942Z" fill="#534741"/>
<path d="M194.408 83.8601L204.711 88.1297L206.781 82.9418L194.408 78.1442V83.8601Z" fill="#5B8C87"/>
<path d="M233.068 25.0257C233.02 24.8191 232.755 24.6125 232.49 24.6355C229.914 24.888 227.387 25.4389 224.907 26.0357C224.041 26.2423 224.426 27.459 225.268 27.2294C227.507 26.6785 229.794 26.2653 232.033 25.7832C232.322 26.8851 232.562 28.0099 232.707 29.1577C232.779 29.6627 232.803 30.1677 232.803 30.6727C232.827 31.5909 231.383 31.6597 230.757 31.7745C229.987 31.9123 229.216 31.9582 228.446 31.9811C227.314 32.027 227.242 31.545 226.809 30.8334C226.159 29.7545 225.654 28.6297 225.196 27.4819C225.052 27.1146 224.45 27.2753 224.546 27.6426C225.052 29.2954 225.702 30.9711 226.665 32.4632C227.363 33.5421 229.962 32.8764 231.022 32.7387C232.201 32.578 233.718 32.3254 233.862 31.0399C234.127 29.0887 233.597 26.931 233.068 25.0257Z" fill="#333333"/>
<path d="M239.23 22.8679C237.016 23.6714 234.897 24.888 232.779 25.898C232.37 26.0817 232.659 26.7244 233.092 26.5867C235.331 25.875 237.738 25.2783 239.88 24.3371C240.747 23.9698 240.121 22.5465 239.23 22.8679Z" fill="#333333"/>
<path d="M258.392 57.4842C257.525 54.3164 253.914 47.7052 250.111 52.457C248.955 53.9032 248.667 55.8314 248.45 57.6449C246.596 72.2674 244.719 86.8668 242.865 101.489C241.902 109.11 240.843 116.984 236.703 123.549C236.029 124.605 235.282 125.638 234.969 126.832C234.632 128.026 234.825 129.426 235.812 130.229C234.464 131.836 235.571 135.325 238.051 135.142C238.58 135.096 239.062 134.889 239.495 134.591C241.975 132.961 241.349 129.931 241.926 127.406C242.697 123.963 243.804 120.611 244.911 117.283C249.148 104.405 254.468 91.8481 257.309 78.6948C258.801 71.6705 260.293 64.3937 258.392 57.4842Z" fill="#EADDD0"/>
<path d="M248.763 49.5877C247.8 49.7943 246.813 50.0238 246.091 50.6436C245.152 51.4471 244.839 52.7096 244.574 53.8803C241.686 67.1025 239.495 80.4625 238.003 93.9143C242.769 95.062 247.559 96.2098 252.326 97.3575C258.392 84.7781 261.112 70.7524 260.149 56.9563C259.981 54.5001 259.547 51.7684 257.549 50.2075C255.142 48.394 251.724 48.9449 248.763 49.5877Z" fill="#6087A2"/>
<path d="M51.5147 253.201C56.3532 253.063 61.1918 252.902 66.0062 252.558C68.3412 252.397 70.7486 252.168 72.8669 251.203C74.0224 250.676 75.2019 249.505 74.6723 248.403C74.239 247.485 72.939 247.347 71.8558 247.347C54.4034 247.324 36.9269 247.301 19.4986 248.403C16.3451 248.609 12.7583 249.069 10.9529 251.548C8.73827 254.624 15.3582 253.752 16.7303 253.774C20.5578 253.82 24.3853 253.82 28.1888 253.774C35.9882 253.683 43.7393 253.453 51.5147 253.201Z" fill="url(#paint4_linear_78_60)"/>
<path d="M51.5147 253.201C56.3532 253.063 61.1918 252.902 66.0062 252.558C68.3412 252.397 70.7486 252.168 72.8669 251.203C74.0224 250.676 75.2019 249.505 74.6723 248.403C74.239 247.485 72.939 247.347 71.8558 247.347C54.4034 247.324 36.9269 247.301 19.4986 248.403C16.3451 248.609 12.7583 249.069 10.9529 251.548C8.73827 254.624 15.3582 253.752 16.7303 253.774C20.5578 253.82 24.3853 253.82 28.1888 253.774C35.9882 253.683 43.7393 253.453 51.5147 253.201Z" fill="url(#paint5_linear_78_60)"/>
<path d="M86.8528 87.7622C87.3101 88.1524 87.7675 88.5196 88.3452 88.6803C89.1396 88.8869 89.9822 88.6345 90.7525 88.382C91.2821 88.2213 91.7875 88.0376 92.3171 87.8769C92.5097 87.808 92.7264 87.7391 92.8467 87.5555C92.9671 87.3719 92.943 87.1653 92.9189 86.9358C92.4134 82.2988 91.4987 77.7077 90.1507 73.2314C88.0082 74.1726 85.8898 75.1138 83.7473 76.055C82.5919 76.56 78.7163 77.57 78.644 78.9014C78.5718 80.2558 81.316 82.4594 82.2067 83.3776C83.6751 84.9156 85.2159 86.3848 86.8528 87.7622Z" fill="white"/>
<path d="M87.8398 72.3822C88.4657 72.1297 89.1397 71.8772 89.8378 71.969C90.5119 72.0609 91.1858 72.6348 91.0895 73.2775C91.0173 73.7366 88.4657 74.8384 88.0083 75.0909C86.901 75.7107 85.7695 76.2846 84.614 76.8355C83.4586 77.3865 82.2791 77.8915 81.0996 78.3736C80.4496 78.649 79.0294 79.4983 78.2591 79.2458C75.4426 78.3047 80.3533 75.7337 81.1958 75.2746C83.3383 74.1728 85.577 73.2775 87.8398 72.3822Z" fill="#333333"/>
<path d="M62.9972 245.281C61.9621 245.35 60.9029 245.419 59.8919 245.166C58.8809 244.914 57.9179 244.248 57.605 243.307C57.3402 242.504 57.4606 241.448 56.7384 240.989C56.5699 240.874 56.3774 240.828 56.1607 240.805C56.0644 223.979 56.4977 214.269 56.3773 197.098C57.268 191.382 56.7384 186.08 56.594 180.547C56.1607 163.078 55.7514 145.609 55.3181 128.14C55.27 125.822 55.1737 123.412 53.9701 121.254C52.0202 117.765 47.6872 115.791 43.619 114.276C31.5347 109.776 17.8616 103.349 14.5396 117.811C13.649 121.644 12.9268 125.501 12.325 129.403C11.8917 132.181 11.5547 135.073 12.6139 137.828C14.4193 142.511 17.7654 154.011 22.0021 157.408C33.0513 166.269 37.8657 176.278 41.5006 188.031C40.3692 191.956 41.6932 197.511 42.1987 200.541C44.5578 215.072 49.4205 228.593 51.8036 243.123C50.7926 244.914 50.3592 247.003 50.6481 249.023C50.6962 249.436 50.7925 249.849 51.0814 250.148C51.4906 250.584 52.1646 250.676 52.7664 250.722C54.4756 250.836 56.1847 250.882 57.8939 250.859C59.2178 250.836 60.6381 250.722 61.6491 249.895C62.9731 248.839 63.0453 246.957 62.9972 245.281Z" fill="#998675"/>
<path d="M48.6019 145.908C45.2077 138.769 32.7864 133.971 21.0632 142.12C14.0582 146.987 19.3782 152.404 20.9188 157.225C22.7964 163.078 24.0482 169.116 24.6259 175.245C25.7573 187.067 24.4815 199.325 20.7744 211.606C18.319 219.778 18.2709 228.73 16.5617 236.879C15.6229 241.447 12.6379 247.508 13.336 252.053C15.9839 252.076 18.632 252.099 21.2559 252.122C23.5909 252.145 26.0703 252.122 28.0202 250.905C29.97 249.689 30.9328 246.796 29.2959 245.212C27.6831 245.717 25.9739 246.222 24.3129 245.855C17.019 244.202 26.5517 228.478 27.9479 225.012C33.8937 210.228 39.8395 195.445 44.1485 180.662C47.326 169.85 53.272 155.664 48.6019 145.908Z" fill="#998675"/>
<path d="M50.8407 67.1024C53.7294 73.8742 56.618 80.623 59.5067 87.3948C60.301 89.2542 61.0954 91.2283 60.7103 93.1795C60.0362 96.6458 56.0644 98.5052 52.4776 99.2857C45.3763 89.6675 37.8898 80.3016 30.0663 71.2114C25.6129 66.0464 18.6802 54.1097 28.9109 50.5058C40.5137 46.4427 47.3984 59.0222 50.8407 67.1024Z" fill="#ACB18F"/>
<path d="M76.8628 56.8186C77.8016 55.4872 79.1497 56.084 80.3292 57.2317C77.0313 68.6175 74.0946 80.0952 71.5188 91.6417C70.7244 95.2227 69.7134 99.171 66.5118 101.237C65.1637 102.109 63.5267 102.545 61.9139 102.798C59.0011 103.28 55.4866 103.027 53.8497 100.686C51.5147 97.3346 54.4034 94.0749 56.7143 91.7335C59.4345 89.0018 60.59 87.2342 62.275 83.5154C66.1507 74.9302 71.3984 64.6233 76.8628 56.8186Z" fill="#ACB18F"/>
<path d="M82.3752 56.2906C82.64 55.9692 82.7846 55.579 82.9531 55.1888C83.3623 54.2017 83.7714 53.1916 84.1806 52.2046C84.3732 51.7455 84.5659 51.2864 84.59 50.8043C84.6141 50.3223 84.4696 49.7943 84.0844 49.4729C83.7233 49.1745 83.2178 49.1056 82.7364 49.1974C82.2549 49.2892 81.8697 49.5418 81.4846 49.8173C80.642 50.4371 79.944 51.2405 79.4626 52.1587C79.0774 52.8932 78.8367 53.6967 78.2349 54.2706C77.9701 54.5231 77.6571 54.7297 77.4163 55.0281C77.0553 55.4642 76.9831 56.084 77.1998 56.589C77.9942 58.2647 81.4605 57.4383 82.3752 56.2906Z" fill="#F2D6C9"/>
<path d="M63.5748 148.295C62.3712 123.733 59.6992 99.2398 56.2087 74.8384C54.9329 65.8858 53.3923 55.2345 43.5708 51.0567C34.4715 47.1773 23.2539 46.1902 17.3321 54.9132C14.0101 59.8027 13.2638 65.7251 12.5657 71.4639C8.37708 106.562 4.18858 141.661 0 176.76C4.59781 177.012 59.627 184.794 59.8678 181.511C59.8678 181.465 59.8678 181.419 59.8678 181.397C60.2288 181.374 60.5658 181.305 60.8788 181.167C62.1064 180.639 62.4675 179.239 62.6842 178.022C64.297 168.197 64.0563 158.212 63.5748 148.295Z" fill="#EBEFEB"/>
<path d="M80.5219 83.9289C80.6423 83.6764 80.7385 83.4009 80.907 83.1713C81.2681 82.6893 81.8939 82.5056 82.5198 82.4368C83.1216 82.3679 83.7475 82.4138 84.3493 82.322C86.227 82.0006 87.7676 80.2331 89.6453 80.5085C90.223 80.6003 90.7525 80.8758 91.234 81.1972C91.8598 81.6333 92.4376 82.2073 92.6061 82.9189C92.8468 84.0437 92.0043 85.1225 91.234 85.9948C90.8007 86.4768 90.3433 86.9819 89.7656 87.2803C89.2841 87.5328 88.7305 87.6246 88.1769 87.7394C86.8529 88.0378 85.5288 88.497 84.4697 89.3693C83.6031 90.0809 82.8809 91.0679 81.7977 91.3204C79.8237 91.7795 77.9702 89.7135 77.7535 88.0149C77.4887 86.2703 79.8479 85.3751 80.5219 83.9289Z" fill="#F2D6C9"/>
<path d="M81.8458 89.966C80.9792 88.3132 80.1125 86.6605 79.27 85.0078C76.5498 85.4439 74.5038 87.5099 72.5539 89.3463C69.8578 91.8944 66.9451 94.2358 63.8397 96.3476C62.0103 97.5872 59.9158 98.7809 57.7012 98.4595C55.0051 98.0693 53.2719 95.5672 51.8757 93.3175C46.6761 84.8471 41.4766 76.3536 36.277 67.8832C32.1606 61.1802 27.5627 63.6364 24.6018 69.6507C21.9298 75.137 25.3722 81.3119 28.0202 86.2703C31.4384 92.6748 35.2177 98.8957 39.3581 104.933C41.7894 108.468 44.7022 112.187 49.0352 113.128C51.1054 113.587 53.3201 113.335 55.3663 112.761C61.9861 110.97 67.2339 106.264 72.1206 101.627C75.2741 98.6202 78.4034 95.5442 81.4605 92.4452C81.7975 92.1009 82.1586 91.7337 82.2309 91.2516C82.279 90.8385 82.0624 90.3792 81.8458 89.966Z" fill="#ACB18F"/>
<path d="M52.3573 17.2666C51.274 14.1906 49.5649 10.403 46.0744 9.59961C42.2951 8.75026 36.9511 11.1147 34.2068 13.4102C30.8126 16.2337 28.6942 20.2279 27.5146 24.3599C26.2147 28.8591 25.9981 33.8633 28.1165 38.0871C30.2348 42.3108 35.0734 45.4787 39.9119 44.79C43.1617 44.3309 45.93 42.2879 48.0484 39.9005C53.4887 33.7715 55.0293 24.8419 52.3573 17.2666Z" fill="#F2D6C9"/>
<path d="M36.1084 28.8131C35.0251 26.9997 31.7512 27.0916 30.7883 28.9509C30.0662 30.3282 32.666 35.9293 33.0511 37.6509C34.0622 42.219 28.9107 73.3922 30.2347 77.9144C22.5075 78.0751 14.7081 77.2717 7.34194 75.022C6.5957 74.7925 5.80135 74.517 5.27176 73.9431C4.59774 73.1856 4.57362 72.0838 4.62176 71.0967C5.1995 56.3135 19.4984 5.99562 38.7322 6.43177C41.0912 6.47768 43.4263 6.9827 45.7373 7.51067C47.2538 7.855 48.7704 8.24527 50.1425 8.97984C52.9349 10.5178 54.6681 13.4332 55.3662 16.4403C56.0883 19.4474 55.8957 22.5693 55.7272 25.6224C55.679 26.5636 44.1485 25.5994 43.0412 25.4387C41.7894 25.2551 39.4544 24.3139 38.2026 24.8189C36.7583 25.3928 36.5898 27.5735 36.1084 28.8131Z" fill="#534741"/>
<path opacity="0.19" d="M19.306 125.546C15.984 124.927 12.9508 123.389 9.9899 121.851C10.4713 120.473 10.9529 119.096 11.4102 117.719C24.987 122.379 40.4173 121.965 53.7052 116.594C53.9219 118.775 54.1145 120.955 54.3312 123.136C50.7203 123.871 47.0373 124.146 43.3783 124.445C38.3713 124.835 33.3882 125.225 28.3812 125.638C25.3721 125.868 22.291 126.097 19.306 125.546Z" fill="white"/>
<defs>
<linearGradient id="paint0_linear_78_60" x1="107.398" y1="246.126" x2="180.758" y2="246.126" gradientUnits="userSpaceOnUse">
<stop stop-color="#4D4D4D"/>
<stop offset="1"/>
</linearGradient>
<linearGradient id="paint1_linear_78_60" x1="107.398" y1="246.126" x2="180.758" y2="246.126" gradientUnits="userSpaceOnUse">
<stop/>
<stop offset="1"/>
</linearGradient>
<linearGradient id="paint2_linear_78_60" x1="211.563" y1="251.839" x2="278.596" y2="251.839" gradientUnits="userSpaceOnUse">
<stop stop-color="#4D4D4D"/>
<stop offset="1"/>
</linearGradient>
<linearGradient id="paint3_linear_78_60" x1="211.563" y1="251.839" x2="278.596" y2="251.839" gradientUnits="userSpaceOnUse">
<stop/>
<stop offset="1"/>
</linearGradient>
<linearGradient id="paint4_linear_78_60" x1="10.5194" y1="250.616" x2="74.7937" y2="250.616" gradientUnits="userSpaceOnUse">
<stop stop-color="#4D4D4D"/>
<stop offset="1"/>
</linearGradient>
<linearGradient id="paint5_linear_78_60" x1="10.5194" y1="250.616" x2="74.7937" y2="250.616" gradientUnits="userSpaceOnUse">
<stop/>
<stop offset="1"/>
</linearGradient>
</defs>
</svg>
