<svg width="95" height="332" viewBox="0 0 95 332" fill="none" xmlns="http://www.w3.org/2000/svg">
<path d="M11.0898 91.924C9.49915 95.891 8.01461 100.07 8.04112 104.431C8.06763 108.792 9.9499 113.425 13.4759 115.121C13.9796 115.363 14.5099 115.545 15.0401 115.484C15.6764 115.424 16.2331 115.03 16.7633 114.606C20.5544 111.487 22.7019 106.43 24.9819 101.766C30.7613 89.9859 38.3966 79.2354 42.0552 66.4257C42.2672 65.6686 42.4793 64.8207 42.1877 64.0636C42.0021 63.5791 41.6045 63.2157 41.2333 62.8826C39.5631 61.4593 37.5746 60.3691 35.4802 60.46C33.4124 60.5508 31.2651 62.0649 30.7879 64.3665C30.6023 62.7009 30.9734 61.0353 31.371 59.4303C31.7687 57.8253 32.1928 56.1901 32.1663 54.4942C32.1133 52.4047 29.9925 47.9228 27.739 50.194C26.9967 50.9208 26.8907 52.5258 26.6256 53.5252C26.1484 55.3119 25.5651 57.038 24.9553 58.7641C22.4368 66.0623 19.2819 73.0274 16.1801 79.9925C14.4569 83.9595 12.707 87.8963 11.0898 91.924Z" fill="#EBEBEB"/>
<path d="M26.2809 41.2902C26.0158 42.653 26.1748 44.0763 26.3603 45.439C26.6254 47.256 26.9437 49.1335 27.7655 50.7385C28.5609 52.3435 29.9129 53.7063 31.5301 53.9485C32.4315 54.0999 33.4124 53.8274 34.0752 53.1006C34.9766 52.1013 35.0827 50.5265 35.0827 49.1032C35.0561 46.8017 34.8441 44.4699 34.4199 42.1987C34.2873 41.5022 34.1546 40.7754 33.81 40.1698C32.9616 38.5648 30.8408 37.6866 29.2236 37.7774C27.7125 37.8985 26.6255 39.6852 26.2809 41.2902Z" fill="#F5D9C9"/>
<path d="M18.8312 145.04C18.8312 145.04 14.7219 297.061 14.6424 320.681L24.531 321.014C24.531 321.014 35.3212 201.427 43.5132 194.341C43.5132 194.341 46.9065 193.796 48.2056 194.341C49.5046 194.886 52.9247 312.747 50.7507 321.499H59.526C59.526 321.499 79.2238 179.653 78.0573 145.979C78.0573 145.979 78.8262 129.081 52.7391 130.595C26.6785 132.139 21.4293 128.263 18.8312 145.04Z" fill="#4D4D4D"/>
<path d="M31.6626 14.2487C30.6021 17.489 30.4962 21.0624 30.9204 24.4844C31.3445 27.9064 32.2724 31.2375 33.2268 34.5081C34.6584 29.6628 36.09 24.7569 38.476 20.4265C39.5895 18.3975 40.968 16.2777 40.915 13.8853C40.8885 12.2803 40.1462 10.7056 38.9797 9.79714C35.4802 7.01111 32.8556 10.7056 31.6626 14.2487Z" fill="#EDE1BB"/>
<path d="M33.598 39.6241C33.7306 41.7742 33.8365 43.9849 34.4728 45.9836C35.8779 50.4352 39.3775 52.9184 42.6914 54.917C45.2365 56.4312 48.1526 57.8848 50.6977 56.4615C52.8981 55.2199 54.1707 52.2522 55.8674 50.0112C57.1399 48.3154 58.7042 46.9829 59.9237 45.1962C62.6544 41.1989 63.3171 35.4148 63.3171 29.9942C63.3436 23.1502 62.2831 15.6703 58.3329 11.2793C56.2651 8.97776 53.614 7.79673 50.9629 7.10022C48.4708 6.43399 45.8726 6.19173 43.4336 7.06994C40.4113 8.16013 37.8398 10.9764 36.037 14.3984C31.7157 22.6354 33.0678 30.2667 33.598 39.6241Z" fill="#F5D9C9"/>
<path d="M71.0585 14.2176C70.5548 10.8562 69.8654 6.88912 67.1347 5.43554C65.438 4.52705 63.4497 4.95102 61.5939 5.25385C59.7912 5.55668 57.9618 5.70809 56.159 5.43554C52.6595 4.86016 49.5577 2.58894 46.2703 1.13536C42.9564 -0.28794 38.8472 -0.742188 36.1961 1.98328C34.5524 3.67913 33.8101 6.49544 34.3933 8.94836C34.7645 10.5231 35.4272 11.6133 36.2755 12.4006C35.2946 17.1248 42.5852 20.3953 46.2173 20.7587C49.4781 21.0616 52.7656 20.4862 56.0265 19.9108C56.6097 25.3012 57.1665 30.6915 57.7498 36.1122C58.1739 33.8107 59.1283 31.6606 60.4803 29.9042C61.3817 30.5099 61.6734 31.8726 61.5409 33.0536C61.4083 34.2346 60.9311 35.3248 60.56 36.415C59.2344 40.5032 59.5526 45.2577 57.6172 49.043C58.0414 48.5888 58.439 48.1043 58.8101 47.5895C58.7836 47.862 58.7837 48.1648 58.7572 48.4374C63.5027 44.7126 67.3733 39.5947 69.9449 33.7198C70.9523 31.4183 71.7741 28.9654 72.0658 26.3914C72.5165 22.3032 71.6682 18.2452 71.0585 14.2176Z" fill="#EDE1BB"/>
<path d="M15.8089 155.639C15.7559 157.244 15.7028 158.909 16.2596 160.393C17.6382 164.057 25.0348 164.209 28.8524 164.966C41.896 167.6 58.6777 170.023 71.9598 169.266C73.4179 169.175 74.9556 169.054 76.2281 168.327C78.455 167.086 79.3831 164.39 79.9928 161.907C82.9091 150.188 79.6216 136.5 79.7276 124.417C79.8071 114.484 79.8867 104.582 79.2239 94.679C78.5876 85.2913 77.2356 75.7521 73.1794 67.2426C71.9069 64.608 70.3162 61.9734 67.8506 60.3987C65.6237 58.9754 62.893 58.5514 60.2419 58.2788C55.0192 57.764 49.77 57.7943 44.5472 58.3394C40.9152 58.7331 38.3436 58.2183 34.8971 57.5521C33.0413 57.1887 33.4655 56.7041 32.2725 58.2486C31.3181 59.5205 30.947 62.0339 30.4698 63.5481C28.1898 70.604 26.387 77.8417 24.9554 85.1398C22.0656 99.8271 20.6871 114.726 19.8387 129.656C19.4145 137.923 16.1006 147.402 15.8089 155.639Z" fill="#F2F2F2"/>
<path d="M43.3276 62.7313C44.5206 62.8221 44.9979 64.6996 44.5207 65.9412C44.0435 67.1828 43.0359 68.0308 42.2406 69.0604C40.4378 71.4225 39.9076 74.6627 39.4569 77.7516C38.0783 87.2302 36.6997 96.7088 35.2946 106.187C34.8174 109.549 34.3137 112.94 34.4993 116.332C34.6849 119.724 35.5598 123.055 35.5068 126.477C35.4803 127.385 35.4008 128.324 34.9236 129.081C34.579 129.626 34.0487 130.02 33.545 130.383C32.564 131.08 31.5832 131.807 30.6022 132.503C30.1516 132.806 29.6479 133.139 29.1442 132.988C28.6139 132.806 28.3752 132.17 28.0571 131.655C27.5534 130.807 26.7846 130.232 26.2278 129.445C24.5841 127.143 25.0614 123.782 25.6181 120.875C26.8907 114.303 28.1632 107.701 29.4357 101.13C31.318 91.5304 33.2534 81.8398 37.071 73.0275C37.6543 71.695 38.317 70.3323 38.5291 68.8484C38.7147 67.4857 37.8133 65.9412 38.0254 64.8208C38.37 63.1855 42.0551 62.6404 43.3276 62.7313Z" fill="#363636"/>
<path d="M69.3352 70.4228C71.191 69.6354 73.3915 69.272 75.0087 70.5439C75.9631 71.301 76.5728 72.482 77.1296 73.6631C79.1974 78.0541 81.0797 82.5663 82.9355 87.1087C85.189 92.5294 87.4159 97.95 89.6693 103.371C91.154 106.944 92.6387 110.517 93.5401 114.333C96.0851 124.993 93.9642 136.288 91.8433 147.039C90.5973 153.368 89.3512 159.727 87.3363 165.814C87.1508 166.329 86.9387 166.904 86.5145 167.177C86.1433 167.389 85.7191 167.359 85.3215 167.328C84.1815 167.207 83.0415 167.086 81.9016 166.965C81.3978 166.904 80.8411 166.814 80.576 166.329C80.3639 165.905 80.4434 165.39 80.5495 164.936C83.2006 152.126 84.8708 139.074 85.5601 125.931C85.6397 124.629 85.6927 123.297 85.4541 122.025C84.8974 119.057 82.8825 116.786 81.1328 114.485C74.8761 106.278 71.2174 95.7999 64.7752 87.7749C62.6543 85.1403 59.5526 81.6275 61.0903 77.8421C62.4688 74.4201 66.366 71.6644 69.3352 70.4228Z" fill="#EBEBEB"/>
<path d="M79.1444 171.719C78.7467 172.446 78.3224 173.354 78.6935 174.111C78.8261 174.384 79.0383 174.566 79.1444 174.838C79.3564 175.323 79.1708 175.928 79.2238 176.473C79.3298 177.321 80.0192 177.866 80.6555 178.29C81.1857 178.654 81.7954 178.987 82.3787 178.835C82.6173 178.775 82.8559 178.623 83.068 178.472C84.2875 177.624 85.3744 176.413 85.8516 174.868C86.0637 174.172 86.1433 173.415 86.2228 172.688C86.4084 170.932 86.594 169.205 86.7796 167.449C86.8592 166.813 86.8856 166.117 86.5144 165.632C86.2758 165.329 85.9313 165.208 85.6131 165.117C85.1094 164.966 84.5791 164.814 84.0489 164.724C83.3331 164.602 82.4847 164.542 81.9015 165.148C81.4508 165.602 81.5039 166.177 81.3183 166.783C80.8411 168.509 79.9662 170.205 79.1444 171.719Z" fill="#F5D9C9"/>
<path d="M45.1568 321.893C44.5736 322.347 44.0699 322.923 43.3276 323.195C42.0285 323.71 40.3848 323.165 39.0327 323.589C37.4156 324.074 36.8057 325.618 36.4611 326.981C36.0899 328.404 35.9309 330.13 37.3094 331.099C38.1843 331.705 39.4039 331.826 40.5704 331.856C47.1983 332.189 53.9056 331.887 60.4539 330.948C61.1432 330.857 61.8855 330.736 62.3892 330.312C62.9194 329.888 63.052 329.222 63.105 328.616C63.3967 325.679 63.5026 319.531 58.651 319.198C55.1515 318.956 47.6754 319.985 45.1568 321.893Z" fill="#3D322B"/>
<path d="M14.1917 318.592C13.7145 318.531 13.1842 318.501 12.76 318.652C11.6995 319.046 11.6995 320.287 11.1163 321.135C10.374 322.226 8.70382 322.589 7.19267 322.68C5.68153 322.771 4.09092 322.74 2.79187 323.407C0.989103 324.345 0.485382 326.314 0.299803 328.1C0.24678 328.494 0.220262 328.918 0.458864 329.281C0.830022 329.887 1.75786 330.069 2.5532 330.16C8.8894 330.947 15.3846 331.038 21.7473 330.432C23.2055 330.281 24.8491 330.008 25.5384 328.948C26.7049 327.192 27.2883 322.528 25.459 320.863C23.3646 318.894 17.1079 318.592 14.1917 318.592Z" fill="#3D322B"/>
</svg>
