<svg width="155" height="318" viewBox="0 0 155 318" fill="none" xmlns="http://www.w3.org/2000/svg">
<path d="M103.261 316.412C109.615 316.33 116.002 316.222 122.323 315.518C124.299 315.302 126.669 314.76 127.196 313.162C127.624 311.917 126.603 310.563 125.22 309.913C123.838 309.263 122.191 309.155 120.611 309.101C107.969 308.478 95.2943 308.586 82.6523 308.695C66.2901 308.83 49.8948 308.993 33.5655 310.103C29.9112 310.346 25.4668 313.514 29.9442 315.897C33.7632 317.928 40.8413 316.872 45.1212 316.899C57.4998 316.953 69.8456 316.845 82.2243 316.71C89.2367 316.601 96.2489 316.493 103.261 316.412Z" fill="url(#paint0_linear_55_205)"/>
<path d="M103.261 316.412C109.615 316.33 116.002 316.222 122.323 315.518C124.299 315.302 126.669 314.76 127.196 313.162C127.624 311.917 126.603 310.563 125.22 309.913C123.838 309.263 122.191 309.155 120.611 309.101C107.969 308.478 95.2943 308.586 82.6523 308.695C66.2901 308.83 49.8948 308.993 33.5655 310.103C29.9112 310.346 25.4668 313.514 29.9442 315.897C33.7632 317.928 40.8413 316.872 45.1212 316.899C57.4998 316.953 69.8456 316.845 82.2243 316.71C89.2367 316.601 96.2489 316.493 103.261 316.412Z" fill="url(#paint1_linear_55_205)"/>
<path d="M48.7755 186.442C51.7056 179.619 54.6357 165.349 58.4876 158.824C61.5822 153.571 66.3888 166.974 70.3723 162.127C73.3024 158.526 76.6935 155.114 81.0063 152.623C85.319 150.132 90.6523 148.67 95.8869 149.293C103.492 150.186 109.517 155.385 112.414 161.234C115.344 167.082 119.163 165.62 119.459 171.929C121.303 210.162 118.537 257.059 105.401 293.748C104.216 297.025 102.833 300.436 99.8375 302.819C96.8416 305.202 91.7387 306.123 88.5124 303.956C94.8005 270.435 96.7429 247.366 89.2038 214.034C88.3149 210.053 88.1503 203.257 86.3067 202.472C84.8252 201.849 81.5001 201.957 79.5247 202.526C70.6029 235.046 63.2283 261.987 54.3064 294.479C53.6151 296.943 52.5946 299.787 49.7304 300.707C39.4258 304.011 40.0512 295.156 39.6891 289.876C39.1952 282.241 38.8003 274.605 38.6357 266.942C38.3394 251.779 39.0307 236.508 42.1912 221.534C43.8043 213.303 45.3846 194.268 48.7755 186.442Z" fill="#A58C41"/>
<path d="M136.677 7.3825C136.447 6.35357 136.414 5.29756 136.578 4.24156C136.743 3.21263 137.336 2.02123 138.554 1.85877C139.739 1.69631 140.628 2.69811 141.154 3.59165C143.525 7.73443 143.854 12.5271 144.151 17.1572C142.274 17.5905 140.299 17.7801 138.356 17.6988C138.521 15.7493 138.093 13.7997 137.171 12.0668C136.183 10.1984 134.537 8.41141 134.866 6.35356C135.196 6.35356 135.525 6.32646 135.821 6.32646C136.117 6.67846 136.381 7.0305 136.677 7.3825Z" fill="#E8DBCE"/>
<path d="M110.504 88.3421C105.072 90.5895 99.179 91.2122 97.3024 85.174C94.0431 74.6953 104.809 65.7057 115.508 61.9149C117.517 61.2109 119.558 60.6423 121.566 59.9383C127.228 57.9346 132.298 54.902 136.381 51.1112C141.418 46.4269 141.879 43.8816 141.089 37.9518C140.891 36.3813 137.039 16.9942 137.895 16.8047C140.331 16.2631 142.735 15.7487 145.171 15.2071C145.369 15.153 152.085 36.4626 152.974 38.358C155.969 44.7752 155.805 50.4343 151.393 56.6891C147.673 61.942 142.142 66.139 136.677 70.2276C130.685 74.6953 124.693 79.19 118.735 83.6577C116.759 85.0928 113.698 87.0153 110.504 88.3421Z" fill="#1F375A"/>
<path d="M88.9404 304.66C93.0227 304.389 97.1051 304.525 101.155 305.094C104.249 306.989 107.673 308.559 111.262 309.751C112.315 310.103 113.401 310.428 114.159 311.105C114.916 311.782 115.245 312.919 114.521 313.623C113.895 314.245 112.776 314.3 111.788 314.327C104.249 314.381 96.7429 313.866 89.3354 312.756C88.9074 312.702 88.4136 312.621 88.0844 312.35C87.821 312.134 87.7222 311.836 87.6234 311.565C86.8991 309.236 87.3601 306.664 88.9404 304.66Z" fill="#736357"/>
<path d="M55.3269 304.336C51.2446 304.255 47.1623 304.607 43.1787 305.365C40.2158 307.423 36.9237 309.156 33.434 310.537C32.4134 310.943 31.3598 311.322 30.6355 312.026C29.9112 312.73 29.6808 313.894 30.4709 314.571C31.1293 315.167 32.2488 315.167 33.2364 315.14C40.7426 314.842 48.2158 313.948 55.5245 312.459C55.9524 312.378 56.4135 312.27 56.7428 311.999C56.9732 311.782 57.072 311.485 57.1378 311.187C57.7304 308.804 57.0718 306.259 55.3269 304.336Z" fill="#736357"/>
<path d="M79.7881 63.7568C83.1791 63.7297 86.2735 62.1052 88.6439 60.1015C97.4011 52.6282 97.1707 40.9309 96.2818 30.5605C96.1831 29.4503 96.0844 28.313 95.3272 27.3924C94.1749 25.9844 91.8704 25.6324 89.8292 25.4429C81.072 25.4429 72.4464 25.7678 63.6233 26.1198C62.8661 26.1469 62.0759 26.2011 61.5162 26.5801C60.8907 26.9863 60.6603 27.6632 60.5286 28.313C59.9031 31.2915 61.0884 34.4054 61.0225 37.4651C60.9567 40.5789 61.1212 43.7199 61.7797 46.8066C63.0636 52.7907 66.4217 58.3685 72.7427 61.7802C74.8498 62.9174 77.286 63.7839 79.7881 63.7568Z" fill="#F0E5D4"/>
<path d="M85.9115 62.6466C83.7387 64.4066 80.4135 65.0564 77.4176 64.542C74.4217 64.0275 71.9197 61.9155 70.109 59.9118C72.4794 60.1014 75.3765 61.8343 77.681 62.3758C81.895 63.3506 85.9774 62.4841 87.5906 59.5327C88.1502 60.6158 86.9321 61.8072 85.9115 62.6466Z" fill="#333333"/>
<path d="M94.8333 18.8633C100.167 22.2479 100.397 28.6923 99.8704 34.243C99.64 36.6529 99.0474 39.4689 96.4137 40.552C96.5453 38.088 94.57 35.9218 92.7264 33.9993C91.4425 32.6726 90.1255 31.3187 88.2818 30.5335C82.7509 28.2049 76.7591 31.9144 71.1953 32.2123C67.5081 32.4289 66.1912 31.048 64.8744 34.4597C63.8209 37.2486 63.4587 40.3354 63.4258 43.2326C63.4258 43.6117 63.4258 43.9907 63.1953 44.3157C62.9649 44.6406 62.4053 44.803 62.0431 44.5594C61.9114 44.451 61.8126 44.3157 61.7467 44.1532C59.8043 40.2812 56.1831 36.1114 55.4917 31.9957C54.6357 26.9323 55.4587 21.5711 57.6315 16.7784C58.0595 15.8307 58.8168 14.7747 60.0349 14.8018C60.8909 14.8289 61.5493 15.4245 62.2407 15.8577C63.8209 16.8867 65.9608 17.1304 67.969 16.995C69.9773 16.8596 71.9196 16.3993 73.895 16.1285C77.7468 15.6411 81.2695 16.3723 85.0555 16.5076C88.4136 16.6701 92.002 17.0762 94.8333 18.8633Z" fill="#EFAB50"/>
<path d="M89.3024 66.1937C94.6028 61.5635 99.6071 66.7352 101.549 71.23C109.484 89.3986 112.117 108.84 114.685 128.065C115.113 131.151 115.508 134.238 115.936 137.298C117.418 148.399 118.932 159.474 120.414 170.575C120.512 171.225 105.072 173.933 103.755 174.204C95.6893 175.855 87.2942 175.91 79.0637 175.476C68.7591 174.908 58.4874 173.581 48.15 173.608C43.7384 173.608 39.261 173.879 34.9812 172.958C36.6602 166.514 36.792 159.853 37.1212 153.273C37.9113 137.352 39.9196 121.512 41.9279 105.699C43.0472 96.8178 43.6727 87.7198 45.1541 78.9198C45.9443 74.1001 48.611 65.6792 54.4711 63.5942C60.6934 61.3739 63.755 67.3038 68.7921 68.8472C74.5863 70.6343 81.6646 70.9321 86.9321 67.9266C87.9527 67.358 88.644 66.7623 89.3024 66.1937Z" fill="#1F375A"/>
<path d="M119.689 166.92C119.92 166.893 120.019 166.784 119.887 166.568C118.998 165.268 117.615 162.912 116.167 160.123C115.08 146.314 113.401 132.451 110.471 118.858C106.85 102.07 99.0472 86.5011 94.4052 70.0113C93.0225 65.1645 85.9772 65.5978 83.3764 68.9824C83.1789 69.0095 82.9813 69.0636 82.7509 69.0906C80.5122 67.466 77.7798 66.1122 74.4217 65.1374C70.6686 64.0273 66.7838 66.8975 66.7838 69.903C66.7838 73.1252 66.718 76.3473 66.6192 79.5694C60.1007 105.834 56.1829 132.532 54.9647 159.311C54.9647 159.338 54.9647 159.365 54.9647 159.392C54.6026 160.773 54.2406 162.154 53.8455 163.508C53.0225 165.593 52.1663 167.949 52.0346 169.79C51.9688 169.979 51.9359 170.142 51.8701 170.332C51.1787 172.687 52.792 174.718 55.4587 175.503C75.8703 181.65 97.6646 180.648 117.22 172.985C117.484 172.877 117.747 172.768 117.944 172.633C118.109 172.579 118.274 172.525 118.471 172.443C118.768 172.254 119.064 172.064 119.393 171.875C120.084 171.306 120.512 170.548 120.644 169.763C120.809 168.815 120.48 167.705 119.689 166.92Z" fill="#F0F0F0"/>
<path d="M18.3227 5.54111C18.5531 4.51218 18.5861 3.45617 18.4215 2.40017C18.2569 1.37124 17.6642 0.179923 16.4461 0.0174614C15.2609 -0.145 14.3721 0.856805 13.8453 1.75035C11.4749 5.89312 11.1458 10.6858 10.8495 15.3159C12.7261 15.7492 14.7012 15.9387 16.6436 15.8574C16.479 13.9079 16.9071 11.9584 17.829 10.2255C18.8166 8.35714 20.4626 6.5701 20.1333 4.51225C19.8041 4.51225 19.475 4.48515 19.1787 4.48515C18.8824 4.83715 18.619 5.1891 18.3227 5.54111Z" fill="#E8DBCE"/>
<path d="M44.4958 86.5018C49.9279 88.7491 55.8209 89.3719 57.6975 83.3337C60.9568 72.8549 50.1912 63.8654 39.4916 60.0746C37.4833 59.3706 35.4423 58.8019 33.434 58.0979C27.7715 56.0942 22.7015 53.0617 18.6192 49.2709C13.5821 44.5866 13.1212 42.0413 13.9113 36.1115C14.1089 34.541 17.9606 15.1539 17.1047 14.9643C14.6684 14.4228 12.2653 13.9083 9.82905 13.3668C9.63152 13.3126 2.91526 34.6222 2.02636 36.5176C-0.969534 42.9348 -0.804787 48.594 3.60675 54.8488C7.32693 60.1017 12.8577 64.2715 18.3228 68.3872C24.3146 72.8549 30.3064 77.3497 36.2653 81.8174C38.2406 83.2525 41.3023 85.175 44.4958 86.5018Z" fill="#1F375A"/>
<defs>
<linearGradient id="paint0_linear_55_205" x1="28.0825" y1="312.876" x2="127.306" y2="312.876" gradientUnits="userSpaceOnUse">
<stop stop-color="#4D4D4D"/>
<stop offset="1"/>
</linearGradient>
<linearGradient id="paint1_linear_55_205" x1="28.0825" y1="312.876" x2="127.306" y2="312.876" gradientUnits="userSpaceOnUse">
<stop/>
<stop offset="1"/>
</linearGradient>
</defs>
</svg>
